<svg width="32" height="33" viewBox="0 0 32 33" fill="none" xmlns="http://www.w3.org/2000/svg">
<g filter="url(#filter0_d_652_2748)">
<path fill-rule="evenodd" clip-rule="evenodd" d="M24.75 9.5C24.75 8.80859 24.1914 8.25 23.5 8.25H14.75V23.25H23.5C24.1914 23.25 24.75 22.6914 24.75 22V9.5ZM6 9.5C6 8.12109 7.12109 7 8.5 7H23.5C24.8789 7 26 8.12109 26 9.5V22C26 23.3789 24.8789 24.5 23.5 24.5H8.5C7.12109 24.5 6 23.3789 6 22V9.5ZM9.125 14.5C8.78125 14.5 8.5 14.7812 8.5 15.125C8.5 15.4688 8.78125 15.75 9.125 15.75H11.625C11.9688 15.75 12.25 15.4688 12.25 15.125C12.25 14.7812 11.9688 14.5 11.625 14.5H9.125ZM9.125 13.25C8.78125 13.25 8.5 12.9688 8.5 12.625C8.5 12.2812 8.78125 12 9.125 12H11.625C11.9688 12 12.25 12.2812 12.25 12.625C12.25 12.9688 11.9688 13.25 11.625 13.25H9.125ZM8.5 10.125C8.5 9.78125 8.78125 9.5 9.125 9.5H11.625C11.9688 9.5 12.25 9.78125 12.25 10.125C12.25 10.4688 11.9688 10.75 11.625 10.75H9.125C8.78125 10.75 8.5 10.4688 8.5 10.125Z" fill="white"/>
</g>
<defs>
<filter id="filter0_d_652_2748" x="-4" y="0" width="40" height="40" filterUnits="userSpaceOnUse" color-interpolation-filters="sRGB">
<feFlood flood-opacity="0" result="BackgroundImageFix"/>
<feColorMatrix in="SourceAlpha" type="matrix" values="0 0 0 0 0 0 0 0 0 0 0 0 0 0 0 0 0 0 127 0" result="hardAlpha"/>
<feOffset dy="4"/>
<feGaussianBlur stdDeviation="2"/>
<feComposite in2="hardAlpha" operator="out"/>
<feColorMatrix type="matrix" values="0 0 0 0 0 0 0 0 0 0 0 0 0 0 0 0 0 0 0.25 0"/>
<feBlend mode="normal" in2="BackgroundImageFix" result="effect1_dropShadow_652_2748"/>
<feBlend mode="normal" in="SourceGraphic" in2="effect1_dropShadow_652_2748" result="shape"/>
</filter>
</defs>
</svg>
