<svg width="144" height="32" viewBox="0 0 144 32" fill="none" xmlns="http://www.w3.org/2000/svg">
<path fill-rule="evenodd" clip-rule="evenodd" d="M6.49981 14.282L6.49721 15.2078H10.422C11.2097 15.2078 11.8487 15.8509 11.8487 16.6437V19.3053C11.8487 20.0982 11.2097 20.7413 10.422 20.7413H6.49721V29.5529C6.49721 30.3462 5.85829 30.9889 5.07058 30.9889H1.42663C0.638553 30.9889 0 30.3462 0 29.5529V14.2017H0.00259725C0.0389588 6.91896 4.91548 0.900729 11.1942 0.0137739C12.0446 -0.106479 12.8 0.576571 12.8 1.44112V5.368C12.8 6.04993 12.3203 6.62393 11.6591 6.77107C8.72788 7.42387 6.49981 10.5433 6.49981 14.282ZM91.2031 18.7451H91.2V29.5569C91.2 30.3554 91.8653 31.0031 92.686 31.0031H96.449C97.2816 31.0031 97.9516 30.337 97.9346 29.5268L97.7059 18.7451H97.7051C97.7584 15.3181 99.9349 12.4688 102.801 11.838C103.493 11.6857 104 11.1117 104 10.4208V6.93469C104 6.05753 103.203 5.37333 102.311 5.49746C96.0877 6.36596 91.263 11.9663 91.2031 18.7451ZM81.8815 16.2583C81.6769 14.0853 79.6833 11.9626 76.9739 11.9626C74.2132 11.9626 71.9642 14.0347 71.6572 16.2583H81.8815ZM87.2842 26.5987C87.877 27.1843 87.852 28.144 87.2284 28.697C84.8188 30.834 81.435 32 78.1279 32C70.715 32 65.1429 26.9465 65.1429 19.2656C65.1429 12.4427 69.8459 6.47975 77.2075 6.47975C84.0579 6.47975 88.9143 12.1902 88.9143 19.0123C88.9143 19.1778 88.9109 19.3436 88.9044 19.5076C88.8741 20.2778 88.2251 20.8822 87.4455 20.8822H71.5841C71.942 24.3184 74.7539 26.694 78.2812 26.694C80.4691 26.694 82.3163 25.7452 83.5824 24.7292C84.1547 24.27 84.99 24.3304 85.5111 24.8459L87.2842 26.5987ZM58.2561 7.33445L51.8856 21.4989L45.5155 7.33445C45.2814 6.81462 44.7637 6.47975 44.1929 6.47975H40.5371C39.4799 6.47975 38.7782 7.57402 39.2201 8.53343L49.212 30.2452C49.4488 30.759 49.9631 31.0886 50.5294 31.0886H53.2418C53.8081 31.0886 54.3228 30.759 54.5592 30.2452L64.5515 8.53343C64.993 7.57402 64.2913 6.47975 63.2341 6.47975H59.5784C59.0075 6.47975 58.4898 6.81462 58.2561 7.33445ZM32.2727 16.2583C32.0681 14.0853 30.0745 11.9626 27.3651 11.9626C24.6044 11.9626 22.355 14.0347 22.0484 16.2583H32.2727ZM37.3221 26.2494C38.1313 27.0492 38.0576 28.3661 37.1676 29.0774C34.7975 30.972 31.6247 32 28.5187 32C21.1062 32 15.5341 26.9465 15.5341 19.2656C15.5341 12.4427 20.2371 6.47975 27.5987 6.47975C34.4487 6.47975 39.3055 12.1902 39.3055 19.0123C39.3055 19.1778 39.3021 19.3436 39.2956 19.5079C39.2653 20.2778 38.6163 20.8822 37.8367 20.8822H21.9753C22.3332 24.3184 25.1447 26.694 28.6724 26.694C30.6805 26.694 32.402 25.8945 33.6502 24.9772C34.429 24.4054 35.505 24.4531 36.1911 25.1314L37.3221 26.2494Z" fill="white"/>
<path d="M112.656 29.68V31H105.492V29.956L110.436 23.92H105.576V22.6H112.5V23.644L107.556 29.68H112.656ZM118.915 31.12C118.059 31.12 117.287 30.936 116.599 30.568C115.911 30.192 115.371 29.676 114.979 29.02C114.587 28.356 114.391 27.616 114.391 26.8C114.391 25.984 114.587 25.248 114.979 24.592C115.371 23.928 115.911 23.412 116.599 23.044C117.287 22.668 118.059 22.48 118.915 22.48C119.771 22.48 120.543 22.668 121.231 23.044C121.919 23.412 122.459 23.924 122.851 24.58C123.243 25.236 123.439 25.976 123.439 26.8C123.439 27.624 123.243 28.364 122.851 29.02C122.459 29.676 121.919 30.192 121.231 30.568C120.543 30.936 119.771 31.12 118.915 31.12ZM118.915 29.752C119.475 29.752 119.979 29.628 120.427 29.38C120.875 29.124 121.227 28.772 121.483 28.324C121.739 27.868 121.867 27.36 121.867 26.8C121.867 26.24 121.739 25.736 121.483 25.288C121.227 24.832 120.875 24.48 120.427 24.232C119.979 23.976 119.475 23.848 118.915 23.848C118.355 23.848 117.851 23.976 117.403 24.232C116.955 24.48 116.603 24.832 116.347 25.288C116.091 25.736 115.963 26.24 115.963 26.8C115.963 27.36 116.091 27.868 116.347 28.324C116.603 28.772 116.955 29.124 117.403 29.38C117.851 29.628 118.355 29.752 118.915 29.752ZM133.557 22.6V31H132.273L127.641 25.312V31H126.093V22.6H127.377L132.009 28.288V22.6H133.557ZM143.108 29.692V31H136.808V22.6H142.94V23.908H138.368V26.092H142.424V27.376H138.368V29.692H143.108Z" fill="#CCCCCC"/>
</svg>
